# xmcd
#
# Track frame offsets:
#	150
#	11320
#	23255
#	34302
#	48257
#	59427
#	70972
#	82735
#	94315
#	106530
#	119645
#	132105
#	144169
#	156307
#	168263
#	180377
#	195194
#	208193
#
# Disc length: 2952 seconds
# Revision: 0
# Processed by: cddbd v1.5.2PL0 Copyright (c) Steve Scherf et al.
# Submitted via: dBpowerAMP V12.0
#
DISCID=dd0b8612
DTITLE=Johnny "Guitar" Watson - Space Guitar [CDA]
DYEAR=2006
DGENRE=Blues*
TTITLE0=No I Can't
TTITLE1=Motor Head Baby
TTITLE2=Highway 60
TTITLE3=Sad Fool
TTITLE4=I Got Eyes
TTITLE5=What's Going On
TTITLE6=Walkin' To My Baby
TTITLE7=Thinking
TTITLE8=Space Guitar
TTITLE9=Half Pint-A-Whiskey
TTITLE10=Gettin' Drunk
TTITLE11=You Can't Take It With You
TTITLE12=Hot Little Mama
TTITLE13=I Love To Love You
TTITLE14=Too Tired
TTITLE15=Don't Touch Me
TTITLE16=Those Lonely, Lonely Nights
TTITLE17=Someone Cares For Me
EXTD=
EXTT0=
EXTT1=
EXTT2=
EXTT3=
EXTT4=
EXTT5=
EXTT6=
EXTT7=
EXTT8=
EXTT9=
EXTT10=
EXTT11=
EXTT12=
EXTT13=
EXTT14=
EXTT15=
EXTT16=
EXTT17=
PLAYORDER=
